<svg width="264px" height="280px" viewBox="0 0 264 280" version="1.1" xmlns="http://www.w3.org/2000/svg" xmlns:xlink="http://www.w3.org/1999/xlink"><desc>Created with getavataaars.com</desc><defs><circle id="react-path-1" cx="120" cy="120" r="120"></circle><path d="M12,160 C12,226.27417 65.72583,280 132,280 C198.27417,280 252,226.27417 252,160 L264,160 L264,-1.42108547e-14 L-3.19744231e-14,-1.42108547e-14 L-3.19744231e-14,160 L12,160 Z" id="react-path-2"></path><path d="M124,144.610951 L124,163 L128,163 L128,163 C167.764502,163 200,195.235498 200,235 L200,244 L0,244 L0,235 C-4.86974701e-15,195.235498 32.235498,163 72,163 L72,163 L76,163 L76,144.610951 C58.7626345,136.422372 46.3722246,119.687011 44.3051388,99.8812385 C38.4803105,99.0577866 34,94.0521096 34,88 L34,74 C34,68.0540074 38.3245733,63.1180731 44,62.1659169 L44,56 L44,56 C44,25.072054 69.072054,5.68137151e-15 100,0 L100,0 L100,0 C130.927946,-5.68137151e-15 156,25.072054 156,56 L156,62.1659169 C161.675427,63.1180731 166,68.0540074 166,74 L166,88 C166,94.0521096 161.51969,99.0577866 155.694861,99.8812385 C153.627775,119.687011 141.237365,136.422372 124,144.610951 Z" id="react-path-3"></path></defs><g id="Avataaar" stroke="none" stroke-width="1" fill="none" fill-rule="evenodd"><g transform="translate(-825.000000, -1100.000000)" id="Avataaar/Circle"><g transform="translate(825.000000, 1100.000000)"><g id="Mask"></g><g id="Avataaar" stroke-width="1" fill-rule="evenodd" mask="url(#react-mask-5)"><g id="Body" transform="translate(32.000000, 36.000000)"><mask id="react-mask-6" fill="white"><use xlink:href="#react-path-3"></use></mask><use fill="#D0C6AC" xlink:href="#react-path-3"></use><g id="Skin/👶🏽-03-Brown" mask="url(#react-mask-6)" fill="#EDB98A"><g transform="translate(0.000000, 0.000000)" id="Color"><rect x="0" y="0" width="264" height="280"></rect></g></g><path d="M156,79 L156,102 C156,132.927946 130.927946,158 100,158 C69.072054,158 44,132.927946 44,102 L44,79 L44,94 C44,124.927946 69.072054,150 100,150 C130.927946,150 156,124.927946 156,94 L156,79 Z" id="Neck-Shadow" fill-opacity="0.100000001" fill="#000000" mask="url(#react-mask-6)"></path></g><g id="Clothing/Hoodie" transform="translate(0.000000, 170.000000)"><defs><path d="M108,13.0708856 C90.0813006,15.075938 76.2798424,20.5518341 76.004203,34.6449676 C50.1464329,45.5680933 32,71.1646257 32,100.999485 L32,100.999485 L32,110 L232,110 L232,100.999485 C232,71.1646257 213.853567,45.5680933 187.995797,34.6449832 C187.720158,20.5518341 173.918699,15.075938 156,13.0708856 L156,32 L156,32 C156,45.254834 145.254834,56 132,56 L132,56 C118.745166,56 108,45.254834 108,32 L108,13.0708856 Z" id="react-path-135"></path></defs><mask id="react-mask-136" fill="white"><use xlink:href="#react-path-135"></use></mask><use id="Hoodie" fill="#B7C1DB" fill-rule="evenodd" xlink:href="#react-path-135"></use><g id="Color/Palette/Gray-01" mask="url(#react-mask-136)" fill-rule="evenodd" fill="#E6E6E6"><rect id="🖍Color" x="0" y="0" width="264" height="110"></rect></g><path d="M102,61.7390531 L102,110 L95,110 L95,58.1502625 C97.2037542,59.4600576 99.5467694,60.6607878 102,61.7390531 Z M169,58.1502625 L169,98.5 C169,100.432997 167.432997,102 165.5,102 C163.567003,102 162,100.432997 162,98.5 L162,61.7390531 C164.453231,60.6607878 166.796246,59.4600576 169,58.1502625 Z" id="Straps" fill="#F4F4F4" fill-rule="evenodd" mask="url(#react-mask-136)"></path><path d="M90.9601329,12.7243537 C75.9093095,15.5711782 65.5,21.2428847 65.5,32.3076923 C65.5,52.0200095 98.5376807,68 132,68 C165.462319,68 198.5,52.0200095 198.5,32.3076923 C198.5,21.2428847 188.09069,15.5711782 173.039867,12.7243537 C182.124921,16.0744598 188,21.7060546 188,31.0769231 C188,51.4689754 160.178795,68 132,68 C103.821205,68 76,51.4689754 76,31.0769231 C76,21.7060546 81.8750795,16.0744598 90.9601329,12.7243537 Z" id="Shadow" fill-opacity="0.16" fill="#000000" fill-rule="evenodd" mask="url(#react-mask-136)"></path></g><g id="Face" transform="translate(76.000000, 82.000000)" fill="#000000"><g id="Mouth/Default" transform="translate(2.000000, 52.000000)" fill-opacity="0.699999988"><path d="M40,15 C40,22.7319865 46.2680135,29 54,29 L54,29 C61.7319865,29 68,22.7319865 68,15" id="Mouth"></path></g><g id="Nose/Default" transform="translate(28.000000, 40.000000)" fill-opacity="0.16"><path d="M16,8 C16,12.418278 21.372583,16 28,16 L28,16 C34.627417,16 40,12.418278 40,8" id="Nose"></path></g><g id="Eyes/Default-😀" transform="translate(0.000000, 8.000000)" fill-opacity="0.599999964"><circle id="Eye" cx="30" cy="22" r="6"></circle><circle id="Eye" cx="82" cy="22" r="6"></circle></g><g id="Eyebrow/Outline/Default" fill-opacity="0.599999964"><g id="I-Browse" transform="translate(12.000000, 6.000000)"><path d="M3.63024536,11.1585767 C7.54515501,5.64986673 18.2779197,2.56083721 27.5230268,4.83118046 C28.5957248,5.0946055 29.6788665,4.43856013 29.9422916,3.36586212 C30.2057166,2.2931641 29.5496712,1.21002236 28.4769732,0.94659732 C17.7403633,-1.69001789 5.31209962,1.88699832 0.369754639,8.84142326 C-0.270109626,9.74178291 -0.0589363917,10.9903811 0.84142326,11.6302454 C1.74178291,12.2701096 2.9903811,12.0589364 3.63024536,11.1585767 Z" id="Eyebrow" fill-rule="nonzero"></path><path d="M61.6302454,11.1585767 C65.545155,5.64986673 76.2779197,2.56083721 85.5230268,4.83118046 C86.5957248,5.0946055 87.6788665,4.43856013 87.9422916,3.36586212 C88.2057166,2.2931641 87.5496712,1.21002236 86.4769732,0.94659732 C75.7403633,-1.69001789 63.3120996,1.88699832 58.3697546,8.84142326 C57.7298904,9.74178291 57.9410636,10.9903811 58.8414233,11.6302454 C59.7417829,12.2701096 60.9903811,12.0589364 61.6302454,11.1585767 Z" id="Eyebrow" fill-rule="nonzero" transform="translate(73.000154, 6.039198) scale(-1, 1) translate(-73.000154, -6.039198) "></path></g></g></g><g id="Top"><defs><rect id="react-path-108" x="0" y="0" width="264" height="280"></rect><path d="M120,54 L20,54 L20,155 C20,160.522847 15.5228475,165 10,165 C4.4771525,165 6.76353751e-16,160.522847 0,155 L0,54 L0,44 C-2.9759565e-15,19.699471 19.699471,4.46393476e-15 44,0 L96,0 C120.300529,-4.46393476e-15 140,19.699471 140,44 L140,54 L140,155 C140,160.522847 135.522847,165 130,165 C124.477153,165 120,160.522847 120,155 L120,54 Z" id="react-path-106"></path><filter x="-0.8%" y="-2.8%" width="101.7%" height="111.1%" filterUnits="objectBoundingBox" id="react-filter-103"><feOffset dx="0" dy="2" in="SourceAlpha" result="shadowOffsetOuter1"></feOffset><feColorMatrix values="0 0 0 0 0   0 0 0 0 0   0 0 0 0 0  0 0 0 0.1 0" type="matrix" in="shadowOffsetOuter1"></feColorMatrix></filter><rect id="react-path-107" x="74" y="50" width="118" height="36" rx="8"></rect></defs><mask id="react-mask-104" fill="white"><use xlink:href="#react-path-108"></use></mask><g id="Mask"></g><g id="Top/Accessories/Winter-Hat-1" transform="translate(-1.000000, 0.000000)"><g id="hat" stroke-width="1" fill-rule="evenodd" transform="translate(63.000000, 20.000000)"><path d="M1,48 L23.6714286,48 L23.6714286,153.664286 C23.6714286,159.924828 18.5962564,165 12.3357143,165 C6.07517216,165 1,159.924828 1,153.664286 L1,48 Z M116.328571,48 L139,48 L139,153.664286 C139,159.924828 133.924828,165 127.664286,165 C121.403744,165 116.328571,159.924828 116.328571,153.664286 L116.328571,48 Z" id="inside" fill="#F4F4F4"></path><mask id="react-mask-105" fill="white"><use xlink:href="#react-path-106"></use></mask><use id="hat-mask" fill="#D8D8D8" xlink:href="#react-path-106"></use><g id="Color/Palette/Gray-01" mask="url(#react-mask-105)" fill-rule="evenodd" fill="#FF5C5C"><rect id="🖍Color" x="0" y="0" width="264" height="280"></rect></g></g><g id="hat-front"><use fill="black" fill-opacity="1" filter="url(#react-path-107)" xlink:href="#react-path-107"></use><use fill="#F4F4F4" fill-rule="evenodd" xlink:href="#react-path-107"></use></g><g id="Facial-Hair/Moustache-Fancy" transform="translate(49.000000, 72.000000)"><defs><path d="M84.0002865,69.2970648 C77.2083681,65.7112456 67.5782013,65.1489138 62.3885276,67.1316942 C56.6144416,69.3374281 51.5052994,75.5829845 42.6388201,72.8283797 C42.2699314,72.7136458 41.9094725,73.0449523 42.0204089,73.408662 C43.3937943,77.9183313 51.0278347,81.0068878 53.6221945,81.1080652 C64.961124,81.549609 74.0949802,72.8302891 84.0002865,72.1614794 C93.9055921,72.8302891 103.03945,81.549609 114.378714,81.1080652 C116.972736,81.0068878 124.607113,77.9183313 125.980498,73.408662 C126.091098,73.0449523 125.730639,72.7136458 125.36175,72.8283797 C116.495271,75.5829845 111.386129,69.3374281 105.612044,67.1316942 C100.422371,65.1489138 90.7922044,65.7112456 84.0002865,69.2970648 Z" id="react-path-128"></path></defs><mask id="react-mask-127" fill="white"><use xlink:href="#react-path-128"></use></mask><use id="Moustache-U-a-Question" fill="#28354B" fill-rule="evenodd" xlink:href="#react-path-128"></use><g id="Color/Hair/Brown" mask="url(#react-mask-127)" fill="#4A312C"><g transform="translate(-32.000000, 0.000000)" id="Color"><rect x="0" y="0" width="264" height="244"></rect></g></g></g><g id="Top/_Resources/Wayfarers" fill="none" transform="translate(62.000000, 85.000000)" stroke-width="1"><defs><filter x="-0.8%" y="-2.4%" width="101.6%" height="109.8%" filterUnits="objectBoundingBox" id="react-filter-121"><feOffset dx="0" dy="2" in="SourceAlpha" result="shadowOffsetOuter1"></feOffset><feColorMatrix values="0 0 0 0 0   0 0 0 0 0   0 0 0 0 0  0 0 0 0.2 0" type="matrix" in="shadowOffsetOuter1" result="shadowMatrixOuter1"></feColorMatrix><feMerge><feMergeNode in="shadowMatrixOuter1"></feMergeNode><feMergeNode in="SourceGraphic"></feMergeNode></feMerge></filter><linearGradient x1="50%" y1="0%" x2="50%" y2="100%" id="react-linear-gradient-122"><stop stop-color="#FFFFFF" stop-opacity="0.5" offset="0%"></stop><stop stop-color="#000000" stop-opacity="0.5" offset="70.5058195%"></stop></linearGradient><path d="M44.9178864,17.5714286 C44.9178864,27.2737857 36.66775,35.1428571 22.9204545,35.1428571 L20.1704091,35.1428571 C6.42311364,35.1428571 0.923022727,27.2708571 0.923022727,17.5714286 L0.923022727,17.5714286 C0.923022727,7.86614286 2.20715909,0 21.4545455,0 L24.3863636,0 C43.63375,0 44.9178864,7.86614286 44.9178864,17.5714286 L44.9178864,17.5714286 Z" id="react-path-119"></path><path d="M106.486068,17.5714286 C106.486068,27.2737857 98.2388636,35.1428571 84.4886364,35.1428571 L81.7385909,35.1428571 C67.9912955,35.1428571 62.4912045,27.2708571 62.4912045,17.5714286 L62.4912045,17.5714286 C62.4912045,7.86614286 63.7753409,0 83.0227273,0 L85.9545455,0 C105.199,0 106.486068,7.86614286 106.486068,17.5714286 L106.486068,17.5714286 Z" id="react-path-120"></path></defs><g id="Wayfarers" filter="url(#react-filter-121)" transform="translate(7.000000, 7.000000)"><g id="Shades" transform="translate(10.795455, 2.928571)" fill-rule="nonzero"><g id="Shade"><use fill-opacity="0.700000048" fill="#000000" fill-rule="evenodd" xlink:href="#react-path-119"></use><use fill="url(#react-linear-gradient-122)" fill-rule="evenodd" xlink:href="#react-path-119" style="mix-blend-mode: screen;"></use></g><g id="Shade"><use fill-opacity="0.700000048" fill="#000000" fill-rule="evenodd" xlink:href="#react-path-120"></use><use fill="url(#react-linear-gradient-122)" fill-rule="evenodd" xlink:href="#react-path-120" style="mix-blend-mode: screen;"></use></g></g><path d="M33.7159091,41 L30.9658636,41 C17.0778409,41 8.78665909,33.3359286 8.78665909,20.5 C8.78665909,10.127 10.5985227,0 32.25,0 L35.1818182,0 C56.8332955,0 58.6451591,10.127 58.6451591,20.5 C58.6451591,32.5686429 48.3955227,41 33.7159091,41 Z M32.25,5.85421429 C14.6502955,5.85421429 14.6502955,12.3175714 14.6502955,20.5 C14.6502955,27.1800714 17.4795,35.1428571 30.9658636,35.1428571 L33.7159091,35.1428571 C44.9418409,35.1428571 52.7815227,29.1217143 52.7815227,20.5 C52.7815227,12.3175714 52.7815227,5.85421429 35.1818182,5.85421429 L32.25,5.85421429 Z" id="Left" fill="#252C2F" fill-rule="nonzero"></path><path d="M95.2840909,41 L92.5340455,41 C78.6460227,41 70.3548409,33.3359286 70.3548409,20.5 C70.3548409,10.127 72.1667045,0 93.8181818,0 L96.75,0 C118.401477,0 120.213341,10.127 120.213341,20.5 C120.213341,32.5686429 109.963705,41 95.2840909,41 Z M93.8181818,5.85421429 C76.2184773,5.85421429 76.2184773,12.3175714 76.2184773,20.5 C76.2184773,27.1800714 79.0506136,35.1428571 92.5340455,35.1428571 L95.2840909,35.1428571 C106.510023,35.1428571 114.349705,29.1217143 114.349705,20.5 C114.349705,12.3175714 114.349705,5.85421429 96.75,5.85421429 L93.8181818,5.85421429 Z" id="Right" fill="#252C2F" fill-rule="nonzero"></path><path d="M2.93181818,5.85714286 C3.61786364,5.17185714 11.1233182,0 32.25,0 C49.9640455,0 53.7138409,1.88014286 59.3898409,4.72085714 L59.8053162,4.93054903 C60.1999353,5.07314243 62.2179351,5.77419634 64.5784525,5.85128811 C66.7290156,5.75689949 68.5684809,5.16080623 69.1059926,4.96981137 C75.5844654,1.74762081 81.9260118,0 96.75,0 C117.876682,0 125.382136,5.17185714 126.068182,5.85714286 C127.689477,5.85714286 129,7.16621429 129,8.78571429 L129,11.7142857 C129,13.3337857 127.689477,14.6428571 126.068182,14.6428571 C126.068182,14.6428571 120.204545,14.6428571 120.204545,17.5714286 C120.204545,20.5 117.272727,13.3337857 117.272727,11.7142857 L117.272727,8.8618831 C113.697201,7.46243482 107.296654,5.85714286 96.75,5.85714286 C84.9995538,5.85714286 79.1475515,6.98813142 74.1276604,9.10414393 L74.1837955,9.24257143 L71.6878772,10.2500422 L74.1813177,11.2582547 L71.981173,16.6874536 L69.263564,15.5885995 C69.0208516,15.4904597 68.4971539,15.3141463 67.770994,15.1309826 C65.7466083,14.6203594 63.6653786,14.4649153 61.8248214,14.8513001 C61.1495627,14.993056 60.5230576,15.2057795 59.9480988,15.4931011 L57.3260941,16.8033836 L54.7026238,11.5651815 L57.3246285,10.2548989 L57.3310023,10.251716 L54.8191364,9.23671429 L54.8992448,9.03890561 C50.5700368,6.97578666 46.5781927,5.85714286 32.25,5.85714286 C21.7038986,5.85714286 15.3034993,7.46145875 11.7272727,8.86093383 L11.7272727,11.7142857 C11.7272727,13.3337857 8.79545455,20.5 8.79545455,17.5714286 C8.79545455,14.6428571 2.93181818,14.6428571 2.93181818,14.6428571 C1.31345455,14.6428571 0,13.3337857 0,11.7142857 L0,8.78571429 C0,7.16621429 1.31345455,5.85714286 2.93181818,5.85714286 Z" id="Stuff" fill="#252C2F" fill-rule="nonzero"></path></g></g></g></g></g></g></g></g></svg>